<?xml version="1.0" encoding="UTF-8"?><svg id="Crest_Vector" xmlns="http://www.w3.org/2000/svg" xmlns:xlink="http://www.w3.org/1999/xlink" viewBox="0 0 512 512"><defs><clipPath id="clippath"><path d="M256,375.09c-36.32-17.69-63.69-45.67-81.4-83.22-16.42-34.8-24.21-76.81-23.21-124.97,24.27-1.53,40.77-9.64,55.51-16.88,15.31-7.52,28.53-14.02,49.1-14.02s33.8,6.5,49.1,14.02c14.73,7.24,31.24,15.35,55.51,16.88,1,48.16-6.8,90.17-23.21,124.97-17.71,37.55-45.08,65.53-81.4,83.22Z" style="fill:none; stroke-width:0px;"/></clipPath></defs><path d="M256,127.5c-46.47,0-60.58,31.16-112.86,31.16-4.1,102.07,29.87,187.55,112.86,225.83,82.99-38.28,116.96-123.76,112.86-225.83-52.28,0-66.39-31.16-112.86-31.16Z" style="fill:#461117; stroke-width:0px;"/><path d="M256,375.09c-36.32-17.69-63.69-45.67-81.4-83.22-16.42-34.8-24.21-76.81-23.21-124.97,24.27-1.53,40.77-9.64,55.51-16.88,15.31-7.52,28.53-14.02,49.1-14.02s33.8,6.5,49.1,14.02c14.73,7.24,31.24,15.35,55.51,16.88,1,48.16-6.8,90.17-23.21,124.97-17.71,37.55-45.08,65.53-81.4,83.22Z" style="fill:#fff; stroke-width:0px;"/><path d="M256,375.09c-36.32-17.69-63.69-45.67-81.4-83.22-16.42-34.8-24.21-76.81-23.21-124.97,24.27-1.53,40.77-9.64,55.51-16.88,15.31-7.52,28.53-14.02,49.1-14.02s33.8,6.5,49.1,14.02c14.73,7.24,31.24,15.35,55.51,16.88,1,48.16-6.8,90.17-23.21,124.97-17.71,37.55-45.08,65.53-81.4,83.22Z" style="fill:none; stroke:#461117; stroke-miterlimit:10;"/><path d="M176.78,192.26c50.75-.46,107.69-.46,158.44,0-50.75.46-107.69.46-158.44,0h0Z" style="fill:#301114; stroke-width:0px;"/><path d="M256,127.5c-46.47,0-60.58,31.16-112.86,31.16-4.1,102.07,29.87,187.55,112.86,225.83,82.99-38.28,116.96-123.76,112.86-225.83-52.28,0-66.39-31.16-112.86-31.16Z" style="fill:#620b17; stroke-width:0px;"/><path d="M256,375.09c-36.32-17.69-63.69-45.67-81.4-83.22-16.42-34.8-24.21-76.81-23.21-124.97,24.27-1.53,40.77-9.64,55.51-16.88,15.31-7.52,28.53-14.02,49.1-14.02s33.8,6.5,49.1,14.02c14.73,7.24,31.24,15.35,55.51,16.88,1,48.16-6.8,90.17-23.21,124.97-17.71,37.55-45.08,65.53-81.4,83.22Z" style="fill:#fff; stroke-width:0px;"/><path d="M267.28,178.08c-.08,1.53.54,3.25,1.75,4.79.82,1.05,1.34.3,1.35-.22.03-1.15.77-1.44,1.86-1.65,2.77-.55,4.24-2.42,3.97-4.83-.2-1.74.16-1.2,1.84-1.02,2.5.27,4.84-.03,6.86-1.59.63-.5.59-.84-.12-1.2-2.81-1.44-5.73-2.6-8.97-2.9-2.48-.23-4.56.49-6.25,2.21-1.68,1.71-2.27,3.77-2.29,6.41h0ZM259.46,180.51c-1.15-.01-2.31,0-3.47,0h0c-1.12,0-2.24-.02-3.36,0-.41,0-1.01-.11-1.06.43-.08.67.62.58,1.02.59,2.31.06,4.62.07,6.93.06.39,0,.98.07.94-.55-.04-.54-.57-.53-1.01-.53h0ZM252.32,179.45h7.4c.62,0,1.09-.19,1.53-.61,3.51-3.33,2.57-9.53-1.84-12.07-2.93-1.69-6.29-1.16-8.45,1.34-2.5,2.88-2.62,7.57-.29,10.57.43.54.93.79,1.65.78h0ZM254.01,231.28c.03,1.61.88,2.24,2.62,1.9.86-.17,1.31-.55,1.28-1.44-.05-1.91-.01-3.82-.01-5.72h.21c0-4.2.36-4.37-2.75-4.21-1.31.07-1.57.28-1.54,1.54.05,2.65.14,5.29.19,7.93h0ZM254.34,248.63c.04,1.71.28,1.84,2.14,1.76.87-.04,1.23-.37,1.2-1.18-.04-1.17-.01-2.34-.01-3.51h.07c0-1.07-.03-2.14,0-3.21.04-1.25-.3-1.63-1.64-1.69-1.21-.05-1.79.45-1.8,1.61-.02,2.08-.02,4.15.04,6.23h0ZM254.68,260.17c-.02,1.51,2.57,1.67,2.67.19.07-1.04.06-2.08.06-3.12,0-.37-.21-.61-.62-.72-2.18-.57-2.12.79-2.12,2.13h.02v1.51h0ZM256,270.4c1.33-.05,1.82-3.21.03-3.24-.85-.02-1.15.76-1.14,1.65,0,.77.53,1.61,1.11,1.59h0ZM254.95,278.59c.04,1.26,2.07,1.36,2.07-.09,0-.27,0-.54,0-.8h.01c0-.89.19-2.06-.97-2.15-1.41-.1-1.15,1.93-1.11,3.04h0ZM255.33,284.88c0,1.77,0,3.55,0,5.32,0,1.27,1.4,1.2,1.44.03.03-.9.01-1.81.01-2.71h.02c0-.87,0-1.74,0-2.61,0-.5-.1-1.01-.78-.99-.59.02-.7.51-.7.97h0ZM254.37,283.59c.23-.3.53-.61-.03-.89-1.35-.67-2.2,1.82-1.04,3.68.15.24.29.65.69.48.87-.37-1.05-1.41.38-3.26h0ZM257.66,281.84c-.96-.74-2.11-1.17-3.2-1.71-1.62-.8-2.08-2.53-1.06-3.95.49-.67,1.2-1.02.87-1.48-.61-.86-1.86-.93-2.54-.13-1.46,1.71-1,4.39,1.1,5.9.94.68,2,1.22,3,1.81,1.54.91,3,1.85,2.09,3.7-.07.41-.13.69.18.78.83.24,2.21-2.88-.44-4.92h0ZM254.22,267.36c1.06-1.34-.34-1.45-1.24-2.06-.97-.66-1.61.45-1.96,1.22-1.13,2.51-.24,4.84,2.52,6.45,1.19.7,2.52,1.21,3.68,1.93,2.16,1.33,2.39,3.17.71,4.98-.67.71.44.91.48.9.34-.06.67-.27.97-.51,2.49-1.93,2.07-5.63-.87-7.26-.87-.48-1.83-.82-2.73-1.26-2.08-1.03-2.79-2.86-1.57-4.39h0ZM260.41,265.5c-2.72-3.1-5.1-2.64-7.49-4.5-1.44-1.12-1.69-1.89-1.14-3.54.57-1.72-.16-1.21-1.66-1.8-.52-.21-.8-.03-1,.43-1.15,2.59.11,5.97,2.76,7.37,1.42.74,2.87,1.45,4.27,2.23,2.42,1.36,2.74,2.52,1.43,4.83-.16.29-.45.65-.02.88.56.3,1.19.49,1.68.68,1.3.2,3.33-4.12,1.17-6.58h0ZM256.5,251.45c-.54-.03-1.09,0-1.63-.03-6.6-.38-7.54-6.85-3.86-9.69.95-.73,2.17-1,2.07-1.47-.07-.36-.5-.36-.8-.41-1.81-.36-3.57-.88-5.29-1.51-.55-.2-1.01-.29-1.39.13-.72.8-1.57,1.52-1.93,2.53-1.21,3.41-1.42,6.68,1.38,9.64,2.34,2.47,4.95,4.41,8.68,4.66,3.15.21,6.92-.47,6.6,3.53-.2,2.61-2.57,2.5-2.36,3.36.14.6,2.2,1.41,2.74,1.06,1.09-.69,1.96-1.54,2.47-2.72,2.03-4.63-2.39-8.87-6.68-9.07h0ZM247.47,221c-2.39-.17-4.8-.33-7.07-1.07-1.25-.41-1.96-.04-2.68.82-2.92,3.46-2.52,8.53.83,11.83,2.89,2.83,6.53,4.29,10.46,5.3,2.69.7,5.41,1.32,8.1,1.99,1.56.39,2.97,1.06,4.23,2,3.11,2.33,2.76,6.79-.68,8.46-1.92.93,1.02,1.64,2.34,3.2.1.12.28.18.45.29.3-.18.6-.31.85-.5,1.28-.95,2.32-2.1,3.38-3.25,3.03-3.28,2.27-10.71-3.18-13.14-5.16-2.3-9.93-2.54-14.55-4.1-2.34-.79-4.21-2.05-5.25-4.24-.41-.86-.44-1.65-.11-2.52,1.59-4.17,4.37-3.96,4.31-4.65-.04-.41-.93-.38-1.45-.42h0ZM243.89,201.42c-1.42.76-2.89,1.2-4.51,1.34-1.15.1-2.29.33-3.43.53-2.03.36-3.49,1.43-4.39,3.14-1.06,2.02-.74,3.99.28,5.91,1.89,3.6,5.04,5.79,9.21,6.6,5.33,1.03,10.77,1.43,16.19,1.82,4.9.35,9.72.58,10.5,6.12.53,3.74-4.09,5.71-7.11,6.45-.33.08-.84.09-.87.48-.04.51.54.48.88.56,5.87,1.34,4.85,2.88,6.68,2.13,4.75-1.95,9.03-5.44,9.07-10.99-.05-2.21-1.08-4.16-3.05-5.71-2.8-2.2-6.13-3.3-9.69-3.84-4.31-.65-8.66-.85-13.02-.79-2.07.03-4.13-.09-6.17-.43-2.29-.38-4.26-1.33-5.81-2.95-2.2-2.3-1.95-5,.72-5.19,5.07-.35,7.27,1.71,10.58-.52.93-.62,1.13-1.6.69-2.52-.87-1.8-4.89-3.14-6.74-2.16h0ZM246.43,203.4c-1.68,0-1.68-.96,0-.96s1.68.96,0,.96h0ZM245.16,198.44c-2.19.67-2.95-1.6-4.42-.07-.84.87-1.69,1.74-2.52,2.62l-.31.6c.27.56,3.3-.02,4.28-.68,1.75-1.18,2.71-.2,3.58-1.62.53-.87-.2-.98-.61-.85h0ZM244.55,197.1c2.32.02,5.63-3.61,4.22-4.23-1.06-.46-1.11,1.81-4.49,4.03.17.13.23.2.28.2h0ZM250.19,194.42c-1.62,2.97-3.22,3.01-3,3.56l.77.1c2.47-1.3,3.13-3.14,3.32-3.33.3-.58-.69-1.08-1.09-.34h0ZM240.5,195.91c.15.46.8.47.99.41,2.38-.77,4.19-2.19,5.44-4.21.37-.6-.72-1.48-1.34-.8l-4.68,3.85c-.28.16-.53.39-.41.74h0ZM234.49,196.9c-3,2.44-6.55,4.07-10.07,5.74-.81.39-.82.82-.05,1.33.97.64,2.1.69,3.13.69,1.18.11,2.2-.09,3.17-.51,3.48-1.52,6.17-3.97,8.73-6.54.47-.47.05-1.62-.88-1.32-1.98.64-3.38.07-4.04.61h0ZM225.84,194.25c-3.22,1.91-6.63,3.46-10.34,4.37-.92.23-1.02.69-.76,1.42.76,2.1,3.53,2.54,5.93,2.04,3.81-.8,7.14-2.53,10.32-4.56.59-.38,1.33-.68,1.61-1.3.23-.5-.56-.84-.56-1.35,0-1.6-1.46-.92-2.2-1.28-1.53-.76-2.76-.08-4.01.65h0ZM221.79,190.14c-4.59,1.9-9.39,3.14-14.28,4.15-1.14.24-1.25.59-.42,1.38,1.52,1.43,4.37,1.97,6.26,1.64,4.93-.86,9.35-2.8,13.44-5.42.16-.11.44-.2.37-.44-.2-.63-1.55.27-4.24-1.24-.37-.21-.72-.24-1.13-.07h0ZM215.32,186.85c-3.35.79-6.79,1.02-10.22,1.33-2.46.22-4.93.12-7.39.29-.83.06-1.07.32-.63,1.08,1.42,2.46,3.65,3.53,6.68,3.41,5.1-.01,11.8-2.11,16.45-4.03,1.22-.5,1.02-1.43-.24-1.55-2.26-.21-2.43-1.06-4.65-.53h0ZM213.47,185.36c-.99-.82-1.35-2.2-2.93-2.55-4.11-.9-3.4-3.28-5.23-3.13-5.55.46-11.1.92-16.66,1.2-1.11.05-2.23.12-3.33.23-1.17.12-1.29.35-.83,1.32.35.73.85,1.36,1.43,1.96,2.39,2.44,5.55,3.03,8.44,3.16,8-.28,11.06-.33,18.5-1.64.29-.05,1.03-.2.61-.55h0ZM213.31,181.57c5.53-.2,10.35-2.39,15.12-4.7,1.5-.73-1.19-.79-3.55-2.66-.55-.43-1.06-.47-1.73-.24-4.79,1.66-9.62,3.2-14.51,4.59-.41.12-1,.14-1.1.58-.14.64.82,1.13.82,1.13,1.48.95,3.13,1.4,4.94,1.3h0ZM223.21,185.36c3.54-1.08,6.75-2.74,9.87-4.61,1.22-.73,2.09-1.31,1.57-2.9-.72-2.22-1.63-1.14-3.51-.21-5.06,2.51-10.24,4.75-16.01,5.48-.56.07-1.01.19-.3.87,2.31,2.2,5.32,2.31,8.37,1.38h0ZM239.7,183.17c-3.53,3.14-6.41,5.29-10.78,7.42-.31.15-.74.26-.74.65,0,.46.41.68.8.87,1.28.62,3.64.17,4.88-.25,2.73-.94,4.54-2.88,6.46-4.79,1.23-1.23,1.26-2.34.48-3.7-.33-.58-.56-.68-1.09-.21h0ZM238.1,182.25c-.58-.5-1.22-.95-1.89-1.33-.44-.26-.82.13-1.17.33-4.75,2.8-6.96,4.12-12.23,5.81-.85.27-.84.72-.36,1.29,1.66,2,4.79,1.45,6.87.4,3.13-1.59,5.85-3.71,8.46-5.93.18-.15.52-.39.32-.56h0ZM239.44,180.82c1.31.28,2.42.4,2.25,2.05-.06.57.49.88.98.27,1.2-1.48,2.34-3.01,2.34-5.33-.29-1.8-.87-3.9-2.28-5.65-4.36-5.42-10.45-1.53-15.7.41-.47.17-.53.49-.11.74,1.51.93,3.01,1.89,4.94,1.91,1.09.01,2.18-.06,3.25-.25.83-.15.91.13.79.8-.48,2.54.83,4.49,3.54,5.06h0ZM243.34,191.41c1.4-1.47,1.39-1.48.12-2.94-.68-.78-.93-1.62-1.95-.54-2.2,2.33-4.46,4.6-7.79,5.61-.95.29-.76,1.4.02,1.57.5.23,1.05.26,1.6.26,3.35-.13,5.86-1.72,8-3.96h0ZM252.24,192.44c.02-.57-.29-.81-.8-1.03-3.29-1.43-6.79-4.03-8.89-6.95-.21.56.07.82.23,1.1,2.02,3.32,4.98,5.69,8.62,7.4.64.3.82.09.84-.52h0ZM258.49,210.6h0ZM258.66,197.61c.23-4.56-.03-9.13.23-13.69.05-.82-.29-1.25-1.26-1.21-1.2.05-2.4.03-3.59,0-.76-.02-1.06.3-1.03.97.05,1.21.11,2.41.13,3.62.04,3.73-.04,7.45.22,11.18v.6c-.01,4.67.07,9.33.2,14,.03.96.4,1.25,1.38,1.14,1.95-.22,3.35.27,3.4-.89.05-.9.12-1.81.15-2.71.16-4.33-.04-8.66.18-12.99h0ZM260.47,192.97c3.73-1.65,6.98-3.8,8.77-7.41.19-.37.49-.74.32-1.22-.42.12-.47.45-.63.69-1.9,2.89-4.39,5.13-7.97,6.18-.88.26-1.71.6-1.24,1.68.15.35.49.2.75.08h0ZM261.97,194.24h0ZM264.87,197.57c-1.24-.91-2.15-2.06-2.91-3.33-.44-.73-1.91-.06-1.17.76.78.86,2.62,2.9,3.87,3.09.38.06.47-.33.2-.52h0ZM267.47,196.59c-1.22-1.13-2.56-2.16-3.35-3.63-.34-.62-1.29-.05-.98.6.42.86.97,1.65,1.74,2.27.78.62,1.58,1.25,2.81,1.18-.1-.19-.13-.33-.22-.42h0ZM265.42,192.19c1.06,1.74,3.15,3.69,5.25,4.08.85.16,1.24-.65.43-1.04-1.85-.9-3.18-2.29-4.34-3.85-.25-.33-.5-.57-.97-.28-.45.28-.67.61-.37,1.09h0ZM273.03,201.81c.35-.03.82.13,1-.22.2-.38-.29-.56-.52-.79-.74-.77-1.68-1.4-2.27-2.3-.49-.74-1.1-.8-1.85-.41-1.68.9-2.9-.21-3.11.64-.25,1,1.31,1.32,1.89,1.45,2.86.6,1.96,1.88,4.86,1.62h0ZM276.82,203.52c-1.76-.44-3.56-.67-5.38-.6-2.16.09-1.09-1.33-4.22-1.67-2.2-.23-3.94.67-5.57,1.87-1.1.81-1.13,3.44,1.79,3.91,5.46.86,5.95-1.5,8.84-.89,2.56.55,3.42,2.3,2.14,4.44-.8,1.35-2.07,2.21-3.47,2.97-1.45.79-3.07,1.16-4.93,1.5,1.39.98,3.82,1.06,5.78,2.42,1.54,1.07,2.66.41,4-.41,2.75-1.7,5.05-3.68,5.54-6.96.49-3.25-1.15-5.74-4.52-6.59h0ZM265.45,202.44c1.68,0,1.68.96,0,.96s-1.68-.96,0-.96h0ZM279.97,198.52c-1.52-1.06-3.01-2.22-5.14-1.97l-.96-.16c-.51-.09-1.06-.38-1.41.29-.32.59-.07,1.01.35,1.43,1.67,1.63,3.4,3.23,5.47,4.43,2.27,1.32,6.25,3.26,8.92,1.74.45-.26.83-.59.85-1.1.03-.58-.57-.64-.97-.8-2.54-1.01-4.9-2.31-7.11-3.85h0ZM276.92,195.37c2.51-.13,2.38-1.62,1.19-1.96-3.1-.9-5.36-2.82-7.33-5.13-1.55-1.82-1.35-.6-2.82.85-.43.43-.37.82-.02,1.25.93,1.17,2.07,2.16,3.32,3.03,1.63,1.13,3.46,1.8,5.67,1.96h0ZM296.64,198.63c-3.36-.51-8.15-3.06-11.02-4.7-1-.57-1.85-.7-3.04-.51-1.44.23-2.44.5-2.82,2-.17.66-.26,1.03.39,1.4,4.28,2.5,8.47,5.73,13.72,5.36l2.52-.75c1.04-.57,1.99-2.54.25-2.8h0ZM286.37,191.14c-.39.07-.98-.16-1.09.4-.11.53.44.72.82.96,1.84,1.14,3.83,2.05,5.84,2.88,2.55,1.05,5.19,1.88,8.07,2.15,1.81-.12,3.6-.46,4.94-1.84.89-.92.78-1.25-.51-1.47-4.72-.81-9.27-2.15-13.67-3.89-1.67-.66-1.7.31-4.4.82h0ZM283.43,190.6c-4.1-1.58-7.33-4.25-10.5-7.01-1.3-1.13-1.39-1.12-1.93.44-.27.79-.72,1.54.03,2.35,1.59,1.71,3.24,3.35,5.24,4.65,1.44.94,3.06,1.34,4.99,1.33,2.87.02,3.38-1.3,2.18-1.76h0ZM274.71,181.57h0ZM289.02,187.08c-4.24-1.13-7.91-3.3-11.53-5.54-1.06-.66-1.79-.68-2.78.02-.81.57-.82.94-.13,1.56,2.51,2.25,5.3,4.17,8.34,5.76,1.79.94,5.17,1.42,6.59-.48.48-.64.42-1.08-.49-1.32h0ZM277.76,176.77h0ZM289.49,185.53c2.73.97,5.32.02,7.49-1.3.32-.19.8-.43.69-.83-.11-.42-.74-.39-1.32-.48-5.76-.86-11.56-2.61-16.35-5.95-.69-.48-1.71-.87-2.24-.21-.51.63-.56,1.64-.62,2.5-.04.6.68.83,1.16,1.1,3.58,2.01,7.28,3.77,11.19,5.16h0ZM307.22,188.27c-3.67-.2-7.26-.86-10.83-1.6-1.89-.39-1.47.28-4.23.62-.62.08-1.16.19-1.26.87-.12.79.61.82,1.11.99,3.56,1.18,12.47,3.79,16.2,3.87,2.93.01,5.38-.88,7-3.28.71-1.05.53-1.33-.81-1.36-2.4-.05-4.79.02-7.18-.11h0ZM307.2,179.61c-2.41-.18-1.89,1.92-4.43,2.72-1.93.61-2.4,1.21-3.49,2.5-.24.28-.83.43-.69.85.14.45.73.39,1.15.45,6.16.97,12.81,1.42,19.07,1.24,3.83-.11,6.8-1.54,8.58-4.79.66-1.21.5-1.44-1-1.54l-19.19-1.43h0ZM284.02,177.05c3.04,1.44,6.17,2.69,9.4,3.71,1.69.53,3.43.87,5.31.96,1.86-.21,3.87-.3,5.32-1.78.69-.71.62-1.04-.34-1.31-5.03-1.43-10.02-2.96-14.93-4.73-1.4-.5-1.37.72-4.74,2.08-.29.12-.74.14-.73.52,0,.36.43.43.71.57h0Z" style="fill:#620b17; fill-rule:evenodd; stroke-width:0px;"/><g style="clip-path:url(#clippath);"><path d="M125.11,356.65c12.83,0,257.86,10.04,257.95,12.68.09,2.64.41,13.74.41,13.74H126.74l-1.63-26.42Z" style="fill:#000; stroke-width:0px;"/><path d="M170.7,302.95c.11-.02.2-.03.25-.04,1.16-.1,2.32-.21,3.49-.32,13.65-1.39,26.38-7.19,40.24-7.11,3.78.02,7.55.4,11.27,1.01,7.4,1.21,14.49,3.75,21.81,5.12,4.47.84,9.05.71,13.49-.22s9.03-2.65,13.65-3.53c14.13-2.69,28.59,1.06,42.8.52,1.16-.04,2.33-.11,3.49-.22,1.39-.12,2.82-.29,4.16.1,2.91.85,4.08,5.77,5.32,8.25l-3.54,9.21-24.09,6.02-59.88.71-37.91-.35h-40.39l-26.93-10.63s5.31-10.98,6.02-12.05c.26-.39,1.91-.08,2.27-.05,1.78.14,3.56.37,5.32.61,3.06.41,6.11.86,9.16,1.33,1.49.23,2.99.53,4.49.72,1.18.15,2.23.22,3.14,1.1.21.2,1.72-.09,2.38-.19Z" style="fill:#b57379; stroke-width:0px;"/><path d="M187.55,315.02s7.44-10.1,36.14-5.85c28.7,4.25,68.54,3.52,74.92,2.46,6.38-1.06-60.57,22.52-60.57,22.52l-53.68-11.69,3.19-7.44Z" style="fill:#9c444c; stroke-width:0px;"/><path d="M125.22,304s142.59,30.72,145.06,35.21c2.7,4.91-10.45,6.87-10.45,6.87,0,0-13.71,4.38-18.64,4.83-4.93.45-30.38,1.78-32.25,1.78s-43.93,2.91-49.28-.53c-5.36-3.44-19.82-12.15-21.7-13.48-1.87-1.32-21.43-14.53-21.43-14.53l8.69-20.15Z" style="fill:#630a17; stroke-width:0px;"/><path d="M126.74,325.32s133.02,32.65,148.08,38.99c15.06,6.34,22.72,8.72,22.72,8.72,0,0-52.58.53-54.7,1.32-2.11.79-97.77-8.46-99.88-8.98-2.11-.53-27.74-6.87-27.74-6.87l11.52-34.35" style="fill:#230d10; stroke-width:0px;"/><path d="M383.2,298.02s-30.7-5.52-30.7-5.52c-6.3.83-12.6,1.67-18.9,2.5-14.4,1.9-26.47,5.01-39.22,11.99-11.4,6.25-22.81,12.49-34.21,18.74-1.72.94-9.12,3.55-9.93,5.44,0,0-2.11,4.97-2.11,4.97l18.46,3.33,7.44,2.19,31.97-3.87,77.2-12.03v-27.74Z" style="fill:#841620; stroke-width:0px;"/><path d="M383.79,321.64s-64.79,0-76.94,6.87c-12.15,6.87-26.42,14-26.42,14l-29.59,11.36,4.6,7.3s45.08,5.64,45.87,5.64,82.49,5.02,82.49,5.02v-50.21Z" style="fill:#3d1116; stroke-width:0px;"/><path d="M271.99,363.26s-19.52-4.75-16.01-7.92c2.48-2.24,5.82-3.44,8.82-4.8,2.02-.92,4.06-1.83,6.1-2.72,2.29-1,4.68-2.02,6.98-3.08,1.2-.55,2.4-1.12,3.58-1.72.9-.45,2.29-.92,2.84-1.84.16-.26.2-.62.04-.88-.12-.2-.35-.31-.56-.41-2.01-.92-4.32-1.41-6.46-1.93-2.33-.57-4.68-1.01-7.05-1.31-3.38-.44-6.77-.8-10.16-1.08-1.51-.13-3.02-.22-4.51-.45-.9-.14-2.27-.17-2.62-1.23-.24-.73.54-1.44,1.01-1.89.37-.34.75-.66,1.15-.97,8-6.23,12.2-9.29,12.2-9.29,0,0-27.79,6.02-29.23,7.91-2.66,3.47,7.16,5.66,8.89,6.12,6.64,1.77,14.8,1.99,20.34,6.57.27.22.56.55.43.88-.06.16-.22.27-.36.36-.91.53-2.05.65-3.07.81-3.63.56-7.34.76-11,1.1-5.34.49-10.69.96-16.02,1.56-3.05.34-6.09.72-9.13,1.13-.61.08-5.75.56-5.75,1.41-.64,1.61,14.52,6.17,15.94,6.62,10,3.2,20.28,6.59,30.83,6.99.81.03,1.62.05,2.43.07.13,0,.25,0,.38,0Z" style="fill:#8b9bb1; stroke-width:0px;"/></g></svg>