<?xml version="1.0" encoding="UTF-8"?><svg xmlns="http://www.w3.org/2000/svg" viewBox="0 0 512 512"><g id="Layer_3"><rect x="78.5" y="78.5" width="355" height="355" rx="177.5" ry="177.5" style="fill:#0026c0; stroke-width:0px;"/></g><g id="Layer_1"><path d="M337.4,345.4l-38.8-179.49c-.44-2.21-1.72-3.15-3.64-3.24-.07,0-.13-.02-.2-.02h-14.34c-1.45,0-2.62,1.17-2.62,2.62v36.02l.44,2.35.03-.14,14.96,81.47,5.84,27.08,6.55,34.07c.47,2.1,1.64,3.27,3.74,3.27h24.78c2.8,0,3.74-1.4,3.28-3.97h-.01Z" style="fill:#fff; stroke-width:0px;"/><path d="M226.18,205.2h35.24c.34,0,.68.06,1,.2.32.13.6.32.85.57s.43.53.57.85c.13.32.2.66.2,1.01v10.86c0,.35-.07.68-.2,1.01-.14.32-.32.6-.57.85s-.53.44-.85.57c-.32.14-.66.2-1,.2h-35.24c-.35,0-.68-.07-1-.2-.32-.13-.6-.32-.85-.57s-.44-.53-.57-.85c-.14-.32-.2-.66-.2-1.01v-10.86c0-.35.07-.68.2-1.01.13-.32.32-.6.57-.85s.53-.44.85-.57c.32-.14.65-.2,1-.2Z" style="fill:#fff; stroke-width:0px;"/><path d="M209.82,247.76h44.71c.34,0,.68.07,1,.2.32.13.6.32.85.57s.44.53.57.85c.14.32.2.66.2,1.01v10.86c0,.35-.06.68-.2,1.01-.13.32-.32.6-.57.85s-.53.44-.85.57c-.32.14-.66.2-1,.2h-44.71c-.35,0-.68-.06-1.01-.2-.32-.13-.6-.32-.85-.57s-.43-.53-.57-.85c-.13-.32-.2-.66-.2-1.01v-10.86c0-.35.07-.68.2-1.01.14-.32.32-.6.57-.85s.53-.44.85-.57c.32-.14.66-.2,1.01-.2Z" style="fill:#fff; stroke-width:0px;"/><path d="M193.45,290.32h54.18c.35,0,.68.07,1.01.2.32.13.6.32.85.57.24.24.43.53.57.85.13.32.2.66.2,1.01v10.86c0,.35-.07.68-.2,1.01-.14.32-.32.6-.57.85-.25.24-.53.43-.85.57-.32.14-.66.2-1.01.2h-54.18c-.34,0-.68-.06-1-.2s-.6-.32-.85-.57-.43-.53-.57-.85c-.13-.32-.2-.66-.2-1.01v-10.86c0-.35.07-.68.2-1.01.14-.32.32-.6.57-.85s.53-.44.85-.57c.32-.14.66-.2,1-.2Z" style="fill:#fff; stroke-width:0px;"/><path d="M177.09,332.88h63.66c.34,0,.68.07,1,.2.32.13.6.32.85.57.24.24.43.53.57.85.13.32.2.66.2,1.01v10.86c0,.34-.07.68-.2,1-.14.32-.32.61-.57.85s-.53.43-.85.57c-.32.13-.66.2-1,.2h-63.66c-.35,0-.68-.07-1-.2-.32-.14-.6-.32-.85-.57s-.44-.53-.57-.85c-.14-.32-.2-.66-.2-1v-10.86c0-.35.07-.68.2-1.01.13-.32.32-.6.57-.85.24-.25.53-.44.85-.57.32-.14.65-.2,1-.2Z" style="fill:#fff; stroke-width:0px;"/><path d="M242.54,162.64h25.77c.35,0,.68.06,1.01.2.32.14.6.32.85.57.24.24.43.53.57.85.13.32.2.65.2,1v10.86c0,.35-.07.68-.2,1.01-.14.32-.32.6-.57.85-.25.24-.53.44-.85.57-.32.14-.66.2-1.01.2h-25.77c-.34,0-.68-.07-1-.2-.32-.13-.6-.32-.85-.57s-.43-.53-.57-.85c-.13-.32-.2-.66-.2-1.01v-10.86c0-.35.07-.68.2-1,.14-.32.32-.61.57-.85s.53-.43.85-.57.66-.2,1-.2Z" style="fill:#fff; stroke-width:0px;"/></g></svg>